<?xml version="1.0" encoding="utf-8"?>
<svg version="1.0" width="1767.000000pt" height="2355.000000pt" viewBox="0 0 1767.000000 2355.000000" preserveAspectRatio="xMidYMid meet" xmlns="http://www.w3.org/2000/svg">
  <g transform="translate(0.000000,2355.000000) scale(0.100000,-0.100000)" fill="#000000" stroke="none">
    <path d="M 6835.661 22861.081 C 6546.768 22843.392 5945.206 22746.68 5753.799 22685.352 C 5714.569 22672.379 5645.614 22654.688 5601.625 22644.075 C 5350.777 22588.642 4799.148 22366.917 4457.945 22186.469 C 4211.852 22056.737 4186.885 22042.584 4142.897 22014.28 C 3812.394 21800.809 3793.373 21787.837 3601.967 21642.77 C 3450.983 21529.549 3384.407 21475.297 3244.121 21351.461 C 3099.08 21224.086 2713.89 20837.247 2660.391 20766.483 C 2642.558 20741.716 2597.381 20687.464 2560.527 20645.006 C 2344.154 20396.154 2024.352 19917.322 1853.156 19583.553 C 1737.838 19359.47 1634.406 19146 1634.406 19135.385 C 1634.406 19129.488 1620.141 19094.106 1603.497 19056.366 C 1585.664 19019.805 1561.887 18962.015 1549.998 18928.991 C 1539.299 18897.149 1509.577 18816.95 1485.8 18752.083 C 1404.957 18529.179 1324.114 18250.841 1278.938 18037.372 C 1259.916 17950.096 1238.517 17856.924 1231.385 17830.978 C 1211.174 17753.14 1160.052 17386.349 1138.653 17161.084 C 1110.12 16846.186 1108.932 16105.529 1138.653 15908.571 C 1205.229 15454.506 1369.291 15059.41 1637.973 14700.874 C 1733.082 14574.679 1953.021 14351.774 2083.795 14247.987 C 2346.533 14041.595 2698.435 13870.583 3019.426 13793.922 C 3071.737 13782.129 3181.111 13752.644 3263.142 13730.235 C 3345.173 13707.827 3428.394 13686.598 3447.416 13681.881 C 3556.791 13657.113 3568.68 13641.781 3607.911 13468.41 C 3687.565 13106.337 3845.683 12655.811 4012.123 12312.607 C 4195.207 11935.202 4409.201 11597.896 4676.696 11264.128 C 4825.302 11077.785 4862.156 11037.685 5063.074 10833.651 C 5197.415 10696.842 5290.145 10613.104 5527.918 10412.607 C 5601.625 10350.101 5848.909 10173.192 5961.85 10101.249 C 6138.991 9989.207 6454.038 9814.658 6538.446 9780.455 C 6570.546 9767.481 6602.645 9753.328 6609.778 9747.431 C 6629.99 9730.919 7024.69 9572.881 7098.399 9551.652 C 7136.443 9541.038 7185.186 9524.526 7204.207 9516.271 C 7242.251 9499.759 7421.769 9451.403 7655.973 9394.793 C 8209.981 9260.343 9120.647 9228.5 9778.085 9322.851 C 10505.666 9426.637 11176.183 9668.413 11787.255 10048.176 C 11890.687 10111.862 12010.761 10190.882 12048.804 10219.188 C 12071.392 10236.879 12133.213 10281.695 12185.523 10319.436 C 12363.851 10450.348 12606.378 10661.459 12790.652 10848.983 C 12967.792 11028.25 13229.34 11336.071 13332.772 11489.393 C 13423.125 11621.484 13536.066 11790.137 13556.277 11823.159 C 13723.905 12101.497 13915.312 12488.336 14003.286 12731.291 C 14021.12 12779.646 14052.031 12861.024 14071.052 12910.558 C 14090.074 12960.092 14105.529 13009.627 14105.529 13020.242 C 14105.529 13029.678 14118.607 13074.493 14132.873 13118.132 C 14148.328 13161.769 14178.049 13269.094 14199.449 13356.368 C 14220.848 13443.643 14243.437 13541.533 14251.758 13574.556 C 14270.781 13650.036 14306.445 13674.805 14464.565 13714.903 C 14927.03 13832.843 15042.349 13870.583 15251.587 13967.293 C 15479.849 14074.618 15692.654 14223.221 15892.382 14416.641 C 16156.309 14671.39 16338.205 14935.573 16419.047 15184.425 C 16436.88 15239.856 16458.279 15295.287 16466.602 15308.26 C 16474.924 15321.233 16496.323 15371.947 16512.967 15420.303 C 16530.799 15468.657 16552.2 15525.268 16560.522 15544.139 C 16580.732 15587.777 16617.586 15742.276 16646.12 15897.957 C 16663.951 15999.385 16667.517 16086.659 16667.517 16540.724 C 16667.517 17011.302 16663.951 17087.962 16640.174 17277.844 C 16560.522 17924.15 16427.369 18456.056 16216.941 18970.271 C 16111.133 19228.556 16086.166 19288.705 16019.59 19418.439 C 15736.643 19981.009 15429.916 20430.358 15031.651 20867.911 C 14881.853 21033.025 14607.227 21304.285 14509.74 21383.304 C 14283.857 21567.29 14232.737 21608.568 14129.306 21686.408 C 14028.254 21763.068 13753.627 21947.054 13651.385 22007.203 C 13518.232 22086.222 13203.185 22254.875 13083.111 22310.306 C 12917.86 22388.146 12829.884 22425.887 12816.807 22425.887 C 12809.674 22425.887 12774.008 22440.039 12738.342 22456.55 C 12663.445 22491.932 12254.476 22632.279 12191.467 22644.075 C 12168.879 22648.792 12107.059 22664.124 12054.75 22680.635 C 11940.619 22714.837 11727.812 22758.475 11484.097 22797.395 C 11214.226 22839.853 11133.384 22849.288 10913.445 22862.261 C 10667.351 22876.414 7074.622 22875.234 6835.661 22861.081 Z M 11174.994 21956.489 C 11832.433 21864.496 12357.908 21700.56 12926.182 21409.25 C 12990.38 21376.229 13065.278 21334.948 13094.999 21317.259 C 13124.721 21298.388 13169.897 21271.262 13196.052 21255.93 C 13322.071 21183.988 13547.954 21031.847 13653.763 20949.288 C 13943.844 20721.667 14036.575 20641.468 14214.904 20461.02 C 14541.839 20130.79 14808.144 19793.485 15003.117 19465.614 C 15028.083 19423.156 15066.127 19363.007 15087.525 19329.985 C 15133.891 19258.042 15321.731 18878.278 15389.495 18716.701 C 15472.716 18518.563 15553.558 18288.583 15598.734 18121.108 C 15608.246 18085.727 15632.022 17998.451 15651.044 17926.509 C 15692.654 17774.369 15736.643 17546.746 15762.797 17348.607 C 15773.496 17270.767 15787.763 17175.236 15793.707 17136.317 C 15800.84 17097.397 15809.163 16827.317 15812.73 16534.828 L 15819.863 16004.101 L 15758.041 15822.475 C 15647.478 15493.425 15519.082 15279.956 15300.331 15057.05 C 15225.433 14980.39 15152.912 14904.91 15137.458 14888.397 C 15122.003 14871.886 15082.769 14849.477 15050.672 14837.684 C 15017.384 14827.07 14966.262 14804.662 14935.352 14789.329 C 14862.831 14751.589 14680.937 14682.004 14628.627 14671.39 C 14606.039 14666.671 14560.862 14652.519 14529.951 14640.725 C 14458.62 14612.42 14424.142 14612.42 14399.177 14639.545 C 14383.722 14657.238 14380.155 14858.913 14375.4 16558.416 L 14370.645 18457.236 L 14344.49 18536.254 C 14289.802 18703.729 14111.472 18832.282 13936.71 18831.102 C 13865.379 18831.102 13840.414 18825.206 13764.326 18787.465 C 13694.184 18753.261 13663.274 18728.495 13612.153 18667.167 C 13528.933 18566.919 13520.61 18527.999 13515.855 18233.151 C 13511.1 17959.532 13512.289 16609.13 13518.232 15874.369 C 13526.555 14567.603 13525.366 14403.668 13506.344 14323.469 C 13496.834 14281.011 13480.189 14180.763 13468.3 14099.385 C 13375.57 13402.364 13127.099 12744.264 12739.531 12159.286 C 12375.74 11613.229 11885.931 11137.933 11335.49 10798.269 C 11239.192 10738.121 10990.721 10603.669 10943.166 10584.8 C 10920.578 10576.543 10880.156 10556.494 10854.001 10542.342 C 10827.846 10528.188 10755.327 10496.346 10693.505 10472.757 C 10631.685 10449.168 10548.466 10417.326 10509.233 10400.814 C 10430.769 10370.15 10351.115 10346.562 10081.244 10278.157 C 9848.227 10218.008 9554.579 10170.832 9308.486 10154.322 C 9202.678 10147.246 9186.035 10148.424 9171.768 10167.295 C 9156.312 10183.807 9153.935 10322.975 9151.557 11096.655 C 9149.179 11810.187 9151.557 12011.862 9163.446 12035.45 C 9174.146 12057.858 9201.489 12070.831 9284.709 12096.779 C 9788.785 12251.278 10162.087 12667.603 10164.464 13079.212 C 10164.464 13223.097 10127.609 13304.475 10018.234 13404.723 C 9946.903 13469.59 9754.308 13580.453 9712.699 13580.453 C 9704.376 13580.453 9658.01 13593.426 9608.079 13609.937 C 9424.995 13668.906 9054.071 13706.648 8773.5 13693.674 C 8576.15 13684.239 8338.378 13655.933 8252.78 13631.167 C 8218.304 13621.732 8150.539 13602.86 8101.795 13588.708 C 7915.145 13534.457 7727.305 13401.185 7661.918 13273.811 C 7623.874 13203.047 7615.552 13033.215 7642.896 12916.455 C 7666.673 12818.566 7751.082 12644.016 7820.036 12555.562 C 7982.909 12344.451 8243.268 12169.902 8498.874 12099.137 C 8560.694 12081.446 8621.327 12061.397 8633.215 12053.142 C 8652.237 12038.988 8653.425 11975.301 8654.614 11110.807 C 8654.614 10299.387 8652.237 10182.627 8636.782 10167.295 C 8611.815 10142.528 8391.876 10157.859 8101.795 10206.214 C 7634.574 10285.234 7229.173 10414.967 6847.549 10608.387 C 6756.008 10655.562 6659.711 10703.918 6633.556 10716.891 C 6608.589 10729.864 6572.923 10749.914 6556.28 10761.708 C 6539.635 10772.322 6470.682 10818.319 6401.728 10863.135 C 5896.464 11188.647 5448.264 11633.278 5098.739 12154.569 C 4983.421 12327.939 4815.791 12627.504 4756.348 12766.672 C 4740.893 12802.055 4708.794 12876.356 4685.017 12931.788 C 4563.753 13208.944 4431.789 13657.113 4399.691 13902.428 C 4388.991 13979.087 4378.292 14046.312 4375.914 14051.03 C 4372.348 14055.748 4360.459 14122.974 4349.758 14200.812 C 4330.737 14329.366 4328.36 14522.786 4321.227 16422.785 C 4314.093 18682.499 4318.848 18532.716 4248.705 18634.144 C 4197.585 18709.624 4142.897 18753.261 4053.733 18794.541 C 3943.17 18846.435 3848.061 18848.793 3744.629 18801.617 C 3706.586 18783.926 3656.655 18755.621 3635.255 18739.109 C 3582.946 18700.19 3506.859 18596.404 3487.837 18538.613 C 3474.76 18500.873 3471.193 18129.364 3468.815 16570.21 L 3465.249 14647.802 L 3440.282 14627.752 C 3426.016 14615.958 3404.617 14606.523 3392.729 14606.523 C 3359.44 14606.523 3095.514 14685.542 2990.895 14726.821 C 2666.336 14855.375 2366.744 15121.917 2187.226 15443.89 C 2130.161 15546.497 2115.894 15579.521 2065.962 15721.048 C 1985.119 15953.387 1987.498 15936.875 1981.552 16462.886 C 1976.798 16987.714 1986.309 17143.394 2044.563 17484.237 C 2115.894 17898.204 2187.226 18162.388 2339.4 18569.277 C 2599.76 19265.118 3058.659 19962.138 3610.289 20497.582 C 3858.76 20739.357 3994.29 20851.399 4303.393 21073.125 C 4373.536 21122.659 4582.776 21258.29 4589.908 21258.29 C 4593.475 21258.29 4635.085 21281.877 4681.45 21309.003 C 4852.646 21411.61 5140.35 21550.779 5369.799 21640.413 C 5841.776 21825.576 6312.563 21931.721 6883.215 21981.256 C 6909.37 21983.615 7842.624 21984.794 8957.773 21984.794 L 10984.777 21982.436 L 11174.994 21956.489 Z" style=""/>
    <path d="M 5970.751 17036.922 C 5836.726 16989.819 5787.876 16959.625 5692.68 16867.834 C 5488.512 16672.175 5388.306 16521.203 5356.991 16366.607 C 5349.476 16327.959 5338.203 16271.193 5330.687 16239.791 C 5314.404 16157.663 5316.909 16097.274 5339.456 15971.665 C 5394.569 15667.305 5467.218 15513.918 5636.314 15341.206 C 5745.288 15230.091 5824.2 15181.78 5939.436 15155.209 C 6099.765 15118.975 6201.224 15115.352 6328.985 15143.131 C 6494.325 15178.157 6617.076 15240.961 6749.849 15360.531 C 6971.553 15562.229 7078.022 15806.2 7078.022 16122.637 C 7078.022 16418.542 6981.574 16655.266 6789.931 16835.224 C 6743.586 16878.705 6692.23 16928.223 6673.442 16945.132 C 6582.004 17030.884 6496.83 17055.04 6252.579 17061.078 C 6065.946 17064.701 6047.157 17063.494 5970.751 17036.922 Z" style=""/>
    <path d="M 11287.908 17029.676 C 10969.755 16953.587 10724.252 16679.422 10661.623 16332.79 C 10595.237 15965.626 10702.958 15618.994 10958.482 15372.608 C 11018.606 15315.843 11087.497 15259.078 11111.295 15248.208 C 11135.094 15237.337 11171.418 15215.597 11190.207 15201.104 C 11262.857 15143.131 11314.212 15132.261 11500.845 15131.054 C 11778.915 15127.43 11917.95 15178.157 12090.805 15344.829 C 12217.314 15466.815 12261.154 15528.412 12316.267 15658.852 C 12357.602 15759.097 12360.107 15771.174 12367.622 15964.418 C 12377.643 16253.077 12362.612 16348.491 12279.943 16501.879 C 12217.314 16617.825 12118.361 16741.018 11986.842 16867.834 C 11826.513 17022.43 11537.169 17090.065 11287.908 17029.676 Z" style=""/>
    <path d="M 13263.604 9020.033 C 12961.95 8975.226 12926.461 8965.723 12794.646 8896.477 C 12738.878 8867.965 12650.155 8832.663 12598.19 8819.085 C 12498.061 8791.931 12438.49 8763.418 12376.386 8713.182 C 12356.107 8696.889 12276.256 8648.01 12198.942 8604.562 C 12122.895 8562.471 12034.172 8501.372 12002.486 8470.145 C 11970.799 8438.916 11915.031 8387.321 11878.275 8357.451 C 11756.599 8255.621 11530.992 7989.502 11467.619 7872.736 C 11435.933 7812.994 11391.572 7746.465 11368.758 7723.384 C 11314.257 7669.074 11302.85 7640.56 11254.688 7458.623 C 11177.372 7157.202 11149.489 7104.251 11026.545 7026.859 L 10969.509 6990.2 L 10519.563 6983.411 C 10272.409 6979.337 9335.759 6975.265 8437.134 6972.549 C 6594.253 6968.477 6764.093 6957.614 6663.963 7082.527 C 6579.044 7189.79 6533.416 7284.83 6481.45 7472.2 C 6433.286 7647.349 6397.798 7720.669 6333.157 7791.271 C 6311.611 7812.994 6264.715 7882.24 6227.958 7943.339 C 6189.935 8004.437 6139.237 8075.039 6115.155 8099.479 C 6026.432 8186.374 5975.735 8242.042 5952.921 8277.344 C 5940.246 8297.711 5902.223 8328.939 5866.734 8347.948 C 5832.513 8366.956 5767.872 8418.55 5722.244 8461.999 C 5669.011 8513.592 5617.045 8550.251 5577.754 8565.186 C 5543.533 8577.407 5483.962 8611.35 5443.404 8641.22 C 5342.007 8717.253 5292.576 8741.693 5150.621 8787.858 C 5082.178 8809.58 4982.049 8848.957 4930.084 8874.754 C 4812.21 8933.137 4765.315 8943.998 4442.114 8986.089 C 4077.087 9033.61 3732.339 9026.822 3326.753 8964.364 C 3121.425 8933.137 3037.773 8910.056 2941.447 8858.46 C 2902.155 8836.736 2798.224 8794.646 2709.502 8763.418 C 2590.361 8719.97 2532.058 8692.814 2486.43 8652.083 C 2452.209 8623.569 2385.034 8580.122 2336.87 8557.04 C 2286.171 8532.601 2225.334 8490.511 2192.381 8455.21 C 2160.694 8421.265 2103.658 8375.102 2065.634 8350.663 C 2027.611 8326.222 1978.18 8280.061 1954.098 8247.473 C 1931.284 8214.888 1881.854 8164.652 1846.365 8137.497 C 1802.004 8104.91 1763.98 8060.105 1729.759 8000.364 C 1701.875 7951.485 1654.979 7884.956 1624.56 7852.369 C 1559.92 7781.768 1552.315 7768.189 1482.605 7580.82 C 1454.72 7502.072 1415.431 7411.101 1396.418 7377.157 C 1330.51 7256.319 1316.569 7210.155 1298.824 7067.592 C 1273.474 6869.361 1274.742 6453.89 1300.092 6297.749 C 1319.103 6175.552 1329.243 6148.396 1402.755 6005.832 C 1424.302 5965.1 1448.384 5906.717 1457.256 5876.846 C 1495.28 5749.218 1592.874 5548.272 1633.432 5518.402 C 1656.246 5500.751 1705.677 5435.58 1742.433 5373.123 C 1782.992 5307.951 1826.086 5252.283 1847.632 5240.064 C 1898.33 5211.551 1959.168 5134.159 1998.459 5048.621 C 2052.96 4930.498 2036.484 4893.838 1833.691 4692.891 C 1802.004 4660.306 1760.178 4607.353 1739.899 4572.052 C 1720.886 4538.108 1672.724 4471.578 1634.7 4425.415 C 1582.735 4364.316 1552.315 4312.723 1521.896 4227.184 C 1471.199 4092.767 1417.965 3970.569 1374.871 3894.536 C 1330.51 3814.43 1303.895 3650.141 1296.289 3405.748 C 1284.882 3050.018 1317.836 2741.808 1378.673 2634.547 C 1423.035 2558.512 1515.559 2349.42 1538.373 2276.101 C 1553.582 2228.581 1586.537 2174.27 1638.503 2111.815 C 1681.595 2060.22 1742.433 1974.682 1774.121 1921.73 C 1809.609 1863.346 1851.435 1813.11 1881.854 1792.742 C 1940.157 1752.011 2040.286 1652.895 2040.286 1633.888 C 2040.286 1627.097 2079.576 1595.87 2129.008 1565.999 C 2177.171 1534.771 2241.81 1485.893 2270.962 1457.38 C 2329.266 1403.07 2404.046 1359.622 2533.325 1302.596 C 2577.686 1283.588 2632.187 1253.717 2653.734 1236.066 C 2719.642 1181.757 2762.736 1164.106 2946.516 1112.512 C 3044.11 1085.358 3172.124 1044.625 3231.695 1021.543 C 3374.917 967.234 3532.081 942.795 3821.061 933.289 C 4251.996 918.354 4521.964 950.941 4790.664 1051.413 C 4848.967 1074.495 4965.573 1111.154 5050.492 1134.236 C 5219.064 1180.399 5233.006 1185.83 5298.914 1241.497 C 5324.262 1263.222 5378.764 1294.45 5419.322 1310.743 C 5508.044 1346.044 5563.812 1381.346 5690.558 1483.177 C 5742.523 1525.268 5810.966 1578.22 5842.652 1599.943 C 5945.316 1673.261 6196.272 1946.168 6248.237 2041.212 C 6274.855 2090.089 6320.483 2153.904 6349.633 2183.774 C 6416.809 2253.02 6454.833 2333.128 6489.054 2477.048 C 6518.206 2599.245 6613.266 2834.134 6662.696 2907.455 C 6679.173 2931.893 6717.196 2964.479 6746.348 2982.13 L 6799.581 3011.999 L 7857.906 3018.79 C 8439.669 3022.862 9383.923 3025.578 9955.545 3025.578 L 10994.859 3025.578 L 11065.837 2990.276 C 11159.628 2942.756 11188.778 2888.445 11248.349 2658.986 C 11302.85 2451.251 11323.129 2403.729 11408.049 2285.605 C 11443.538 2236.727 11492.969 2155.263 11518.318 2103.668 C 11548.737 2041.212 11579.155 2000.479 11612.109 1977.398 C 11638.726 1958.388 11679.285 1913.583 11703.366 1878.281 C 11727.448 1842.98 11770.541 1794.101 11799.694 1768.303 C 11828.844 1742.506 11884.612 1692.27 11922.637 1656.968 C 11960.659 1620.309 12024.032 1570.073 12062.057 1542.919 C 12101.347 1517.121 12162.185 1470.957 12197.674 1442.445 C 12233.163 1413.931 12296.536 1377.273 12338.361 1362.338 C 12380.188 1347.403 12444.828 1313.459 12481.584 1286.304 C 12575.376 1218.416 12640.016 1192.618 12790.843 1158.676 C 12863.088 1142.382 12972.089 1108.439 13032.927 1082.641 C 13196.429 1014.753 13273.744 999.819 13555.119 980.811 C 14029.147 950.941 14357.418 984.883 14638.793 1090.788 C 14735.12 1127.447 14850.458 1164.106 14894.819 1172.253 C 14994.948 1192.618 15035.507 1210.269 15164.787 1293.092 C 15220.555 1329.751 15306.742 1374.558 15354.905 1392.208 C 15419.546 1415.29 15456.302 1439.729 15501.93 1488.608 C 15536.152 1523.909 15589.385 1564.641 15621.071 1579.577 C 15659.095 1597.227 15709.793 1642.034 15764.293 1703.133 C 15811.19 1756.084 15869.493 1811.752 15896.108 1825.329 C 15926.528 1841.622 15953.145 1871.492 15969.622 1905.437 C 15983.564 1935.306 16032.995 2000.479 16081.158 2050.716 C 16140.728 2115.887 16178.751 2171.555 16207.903 2238.084 C 16266.206 2371.144 16287.753 2414.592 16347.324 2517.781 C 16413.231 2633.189 16433.51 2703.792 16456.324 2896.592 C 16491.813 3193.938 16494.349 3370.445 16465.196 3637.922 C 16449.987 3772.339 16429.707 3914.902 16418.3 3954.277 C 16400.556 4019.449 16320.707 4175.59 16280.148 4227.184 C 16271.277 4238.047 16244.659 4296.429 16221.845 4356.171 C 16188.891 4443.066 16162.275 4483.798 16083.693 4573.409 C 16030.459 4633.151 15972.156 4709.185 15954.412 4743.127 C 15934.133 4779.787 15891.039 4828.666 15845.411 4862.61 C 15727.538 4954.937 15713.595 5016.036 15784.572 5138.233 C 15808.654 5178.965 15851.748 5233.274 15880.9 5257.715 C 15908.783 5282.154 15963.284 5345.968 16001.308 5398.92 C 16039.332 5453.229 16088.763 5512.97 16112.844 5533.336 C 16144.531 5559.134 16171.147 5606.655 16210.438 5703.056 C 16240.857 5776.374 16292.823 5879.563 16325.777 5931.157 C 16363.8 5989.54 16394.219 6057.427 16406.895 6107.664 C 16496.882 6483.76 16486.743 7136.836 16386.614 7426.037 C 16372.673 7465.412 16335.917 7537.373 16306.765 7584.893 C 16276.346 7631.057 16229.449 7723.384 16202.833 7788.556 C 16163.541 7886.312 16140.728 7921.614 16076.088 7988.143 C 16031.726 8031.591 15984.831 8092.69 15970.889 8122.561 C 15956.947 8151.074 15917.656 8198.596 15884.701 8227.107 C 15850.481 8255.621 15788.375 8315.362 15744.014 8357.451 C 15700.921 8400.9 15660.363 8436.201 15654.025 8436.201 C 15648.955 8436.201 15604.595 8470.145 15556.431 8512.235 C 15508.268 8552.967 15425.883 8608.634 15373.917 8634.432 C 15321.952 8660.229 15257.312 8699.603 15230.695 8722.685 C 15172.392 8772.922 15129.298 8793.289 14997.483 8828.589 C 14941.715 8844.882 14847.924 8881.542 14789.621 8910.056 C 14604.571 9005.096 14324.465 9047.187 13846.634 9053.976 C 13539.909 9058.049 13499.351 9055.332 13263.604 9020.033 Z M 14072.24 8361.524 C 14140.683 8350.663 14205.323 8335.728 14217.998 8328.939 C 14229.405 8322.15 14307.988 8297.711 14391.64 8274.63 C 14671.747 8195.88 14708.503 8180.946 14793.423 8113.057 C 14839.051 8077.756 14901.157 8039.739 14931.575 8028.877 C 14965.797 8016.657 15012.693 7981.355 15053.251 7939.265 C 15090.008 7901.249 15153.38 7844.223 15192.672 7811.637 C 15233.23 7780.409 15285.195 7724.741 15309.277 7688.082 C 15333.359 7651.423 15373.917 7601.187 15401.801 7579.462 C 15428.418 7556.38 15462.638 7512.931 15476.581 7483.062 C 15503.199 7427.395 15593.187 7183 15647.688 7017.355 C 15708.525 6834.06 15711.061 6641.258 15652.757 6475.614 C 15640.083 6437.597 15603.327 6328.976 15572.907 6235.292 C 15499.396 6016.695 15475.314 5965.1 15419.546 5918.938 C 15394.197 5898.572 15354.905 5849.693 15330.823 5810.316 C 15306.742 5770.943 15263.649 5717.99 15234.497 5692.193 C 15205.345 5666.396 15152.113 5618.875 15115.357 5584.932 C 15079.868 5550.987 15012.693 5500.751 14967.064 5472.238 C 14920.168 5445.083 14865.668 5405.71 14844.121 5383.985 C 14807.365 5345.968 14783.283 5333.749 14632.456 5271.291 C 14539.932 5233.274 14397.976 5142.305 14323.197 5071.703 C 14273.766 5025.539 14268.697 5017.393 14282.638 4990.238 C 14300.383 4954.937 14382.766 4903.341 14471.489 4872.114 C 14508.245 4859.893 14567.816 4825.951 14603.305 4796.08 C 14640.06 4767.567 14707.236 4730.908 14752.864 4714.617 C 14850.458 4680.672 14888.482 4656.231 15027.901 4546.255 C 15083.669 4501.449 15149.578 4452.571 15172.392 4437.635 C 15195.205 4422.699 15244.637 4371.106 15282.661 4322.226 C 15320.684 4273.347 15385.324 4194.599 15425.883 4148.434 C 15480.384 4084.621 15508.268 4037.1 15533.617 3965.138 C 15551.361 3910.829 15595.722 3788.632 15631.211 3690.873 C 15681.91 3553.742 15697.118 3491.286 15703.456 3412.536 C 15713.595 3253.679 15698.386 3130.125 15654.025 3022.862 C 15632.478 2969.91 15600.792 2876.225 15583.048 2813.77 C 15534.885 2646.767 15491.791 2561.229 15397.999 2452.608 C 15351.102 2398.298 15296.603 2330.411 15276.324 2300.54 C 15257.312 2270.67 15209.148 2227.222 15171.125 2201.425 C 15133.101 2176.986 15069.729 2125.391 15031.704 2087.374 C 14984.809 2039.853 14927.772 2000.479 14856.795 1966.535 C 14798.493 1939.38 14717.375 1895.932 14675.549 1870.135 C 14570.351 1803.605 14490.501 1776.451 14287.708 1739.792 C 14139.415 1712.636 14069.706 1708.563 13827.621 1709.921 C 13400.49 1711.278 13120.381 1761.515 12982.229 1863.346 C 12951.81 1885.069 12874.496 1924.445 12809.855 1951.6 C 12727.47 1985.544 12679.308 2015.414 12647.621 2049.357 C 12623.54 2076.513 12566.504 2124.034 12520.875 2156.619 C 12473.979 2189.206 12425.816 2232.653 12413.141 2253.02 C 12399.199 2273.386 12370.048 2308.687 12345.966 2331.769 C 12239.5 2437.673 12210.349 2475.691 12169.79 2570.731 C 12146.975 2626.399 12107.685 2701.076 12084.87 2736.378 C 12013.893 2840.925 11993.614 2897.949 11969.531 3050.018 L 11945.449 3196.655 L 11974.602 3280.834 C 12027.835 3441.049 11998.684 3591.758 11890.95 3705.809 L 11842.787 3756.046 L 10473.935 3753.331 C 8149.421 3749.256 5935.176 3727.533 5904.757 3711.24 C 5846.455 3677.297 5813.5 3526.587 5829.977 3373.16 C 5838.849 3290.339 5836.315 3218.377 5822.373 3096.181 C 5791.953 2821.915 5753.93 2706.508 5660.138 2597.887 C 5630.987 2563.943 5590.429 2500.13 5570.149 2456.682 C 5527.055 2365.713 5352.147 2174.27 5227.936 2080.585 C 5186.11 2050.716 5137.946 2009.983 5120.203 1993.69 C 5102.457 1976.039 5041.62 1939.38 4984.585 1913.583 C 4927.549 1886.427 4842.63 1840.265 4794.466 1811.752 C 4746.303 1781.883 4668.988 1749.294 4619.558 1738.434 C 4458.591 1699.058 4115.11 1656.968 3966.817 1658.326 C 3824.863 1658.326 3466.172 1699.058 3339.428 1728.929 C 3254.507 1749.294 2824.84 1976.039 2765.27 2031.706 C 2739.921 2056.146 2672.746 2115.887 2616.978 2162.051 C 2497.836 2263.882 2445.871 2322.265 2395.174 2414.592 C 2374.894 2452.608 2338.137 2504.203 2312.788 2530 C 2244.346 2599.245 2211.391 2679.352 2173.369 2869.437 C 2112.531 3169.499 2107.461 3370.445 2155.623 3616.198 C 2197.45 3836.152 2224.067 3901.326 2306.451 4004.514 C 2347.01 4054.75 2393.906 4122.637 2407.848 4153.866 C 2438.266 4214.965 2665.14 4438.993 2762.736 4502.807 C 2794.422 4523.173 2843.852 4561.191 2873.004 4585.629 C 2902.155 4611.427 2961.726 4644.012 3006.087 4660.306 C 3050.448 4676.598 3118.89 4711.9 3158.181 4741.77 C 3197.473 4770.284 3287.463 4819.162 3357.171 4850.391 C 3490.255 4911.489 3515.604 4930.498 3507.999 4968.515 C 3500.394 5011.963 3259.578 5173.534 3102.413 5240.064 C 3004.82 5280.797 2942.713 5316.098 2918.633 5343.252 C 2899.62 5366.334 2841.318 5405.71 2790.619 5432.864 C 2727.247 5465.449 2682.886 5499.394 2652.467 5540.126 C 2628.385 5571.354 2586.559 5610.729 2561.21 5627.021 C 2492.767 5671.828 2447.139 5720.707 2417.987 5780.448 C 2404.046 5810.316 2364.754 5864.627 2331.8 5902.644 C 2298.846 5940.661 2257.02 6000.403 2239.276 6034.346 C 2183.508 6136.177 2103.658 6524.492 2103.658 6690.138 C 2103.658 6850.352 2175.903 7229.163 2225.334 7321.49 C 2235.474 7340.498 2272.23 7393.451 2306.451 7438.256 C 2340.673 7483.062 2385.034 7546.876 2402.778 7580.82 C 2452.209 7667.715 2481.36 7700.302 2557.407 7753.254 C 2594.164 7777.693 2638.525 7823.857 2656.269 7853.727 C 2680.35 7895.817 2709.502 7918.9 2785.55 7956.916 C 2838.783 7985.429 2918.633 8032.951 2961.726 8065.536 C 3044.11 8127.992 3131.565 8166.008 3276.055 8201.311 C 3324.218 8213.531 3398.998 8236.613 3440.824 8252.904 C 3589.115 8312.646 3715.862 8331.654 3960.481 8333.013 C 4201.297 8333.013 4262.135 8323.508 4469.998 8252.904 C 4524.498 8235.253 4619.558 8208.099 4680.395 8191.805 C 4800.805 8161.936 4848.967 8140.212 4954.166 8064.177 C 4990.921 8037.023 5069.504 7986.787 5127.807 7952.843 C 5186.11 7918.9 5246.948 7874.093 5262.157 7852.369 C 5278.635 7832.004 5335.67 7777.693 5388.903 7731.53 C 5443.404 7686.724 5499.172 7625.626 5513.113 7598.471 C 5556.207 7514.29 5618.313 7412.459 5656.336 7363.58 C 5704.499 7302.481 5733.651 7238.668 5764.069 7125.975 C 5810.966 6949.468 5819.837 6863.93 5814.767 6614.105 C 5810.966 6379.215 5812.234 6372.424 5840.117 6342.555 C 5864.199 6315.4 5885.746 6309.968 5992.212 6304.537 C 6059.387 6300.463 6674.103 6300.463 7357.261 6305.895 C 8040.42 6309.968 9324.352 6312.685 10209.035 6309.968 C 11950.52 6307.254 11875.741 6304.537 11922.637 6380.572 C 11941.648 6413.157 11944.183 6438.954 11939.113 6554.364 C 11922.637 6937.248 11960.659 7161.276 12072.196 7320.132 C 12102.615 7363.58 12139.371 7432.825 12154.581 7473.558 C 12201.476 7606.617 12560.166 7971.852 12705.923 8037.023 C 12733.808 8049.242 12787.041 8083.187 12823.798 8113.057 C 12899.845 8174.154 12921.391 8183.659 13155.87 8252.904 C 13249.662 8280.061 13363.733 8315.362 13409.362 8330.297 C 13563.991 8381.89 13859.308 8395.468 14072.24 8361.524 Z" style=""/>
  </g>
</svg>